<svg width="41" height="16" viewBox="0 0 41 16" fill="none" xmlns="http://www.w3.org/2000/svg">
<path d="M0.5 12V0.554688H7.27344L7.19531 2.23438H2.60156V5.48438H6.96875V7.14844H2.60156V12H0.5Z" fill="#EBEBEB"/>
<path d="M9.07031 12V0.523438H12.8828C13.7839 0.523438 14.5547 0.640625 15.1953 0.875C15.8359 1.10417 16.3411 1.47917 16.7109 2C17.0859 2.52083 17.2734 3.17448 17.2734 3.96094C17.2734 4.50781 17.2031 4.99479 17.0625 5.42188C16.9219 5.84375 16.6901 6.22917 16.3672 6.57812C16.0443 6.92188 15.5885 7.1875 15 7.375C14.4167 7.5625 13.7109 7.65625 12.8828 7.65625C12.1745 7.65625 11.599 7.63542 11.1562 7.59375V12H9.07031ZM12.6562 6.125C13.0885 6.125 13.4635 6.08333 13.7812 6C14.1042 5.91667 14.3542 5.8099 14.5312 5.67969C14.7135 5.54948 14.8568 5.38802 14.9609 5.19531C15.0703 5.0026 15.1406 4.81771 15.1719 4.64062C15.2083 4.45833 15.2266 4.25521 15.2266 4.03125C15.2266 3.40104 15.0234 2.92188 14.6172 2.59375C14.2109 2.26562 13.638 2.10156 12.8984 2.10156H11.1562V6.10938C11.2188 6.11979 11.7188 6.125 12.6562 6.125Z" fill="#4EFFF6"/>
<path d="M21.6719 12.1172C21.0833 12.1172 20.5938 12.0495 20.2031 11.9141C19.8177 11.7734 19.513 11.5521 19.2891 11.25C19.0651 10.9479 18.9089 10.5885 18.8203 10.1719C18.7318 9.75521 18.6875 9.23698 18.6875 8.61719V0.25L20.7344 0.117188V8.57812C20.7344 9.34896 20.8255 9.8724 21.0078 10.1484C21.1901 10.4193 21.5443 10.5547 22.0703 10.5547C22.3307 10.5547 22.6615 10.526 23.0625 10.4688L23.1172 11.9297C23.112 11.9297 23.0469 11.9427 22.9219 11.9688C22.8021 11.9948 22.6849 12.0156 22.5703 12.0312C22.4609 12.0521 22.3203 12.0703 22.1484 12.0859C21.9766 12.1068 21.8177 12.1172 21.6719 12.1172Z" fill="#4EFFF6" fill-opacity="0.8"/>
<path d="M26.3984 12.1641C25.6016 12.1641 24.9557 11.9453 24.4609 11.5078C23.9714 11.0651 23.7266 10.4297 23.7266 9.60156C23.7266 8.71094 24.0182 8.05208 24.6016 7.625C25.1849 7.19271 26.0651 6.91927 27.2422 6.80469C27.4036 6.78385 27.5781 6.76302 27.7656 6.74219C27.9531 6.72135 28.1641 6.70052 28.3984 6.67969C28.6328 6.65885 28.8177 6.64062 28.9531 6.625V6.17188C28.9531 5.65104 28.8333 5.27344 28.5938 5.03906C28.3542 4.79948 27.9896 4.67969 27.5 4.67969C26.8021 4.67969 25.9401 4.875 24.9141 5.26562C24.9089 5.25 24.8229 5.01302 24.6562 4.55469C24.4896 4.09635 24.4036 3.86198 24.3984 3.85156C25.4089 3.41927 26.5026 3.20312 27.6797 3.20312C28.8359 3.20312 29.6771 3.45573 30.2031 3.96094C30.7292 4.46094 30.9922 5.27344 30.9922 6.39844V12H29.4766C29.4714 11.9792 29.4141 11.8047 29.3047 11.4766C29.1953 11.1484 29.1406 10.974 29.1406 10.9531C28.7135 11.3698 28.2943 11.6771 27.8828 11.875C27.4766 12.0677 26.9818 12.1641 26.3984 12.1641ZM26.9531 10.7109C27.4271 10.7109 27.8385 10.599 28.1875 10.375C28.5417 10.1458 28.7943 9.86979 28.9453 9.54688V7.89062C28.9297 7.89062 28.7917 7.90104 28.5312 7.92188C28.276 7.94271 28.138 7.95312 28.1172 7.95312C27.2891 8.02604 26.6823 8.18229 26.2969 8.42188C25.9115 8.66146 25.7188 9.04688 25.7188 9.57812C25.7188 9.94271 25.8255 10.224 26.0391 10.4219C26.2526 10.6146 26.5573 10.7109 26.9531 10.7109Z" fill="#4EFFF6" fill-opacity="0.7"/>
<path d="M33.5078 15.6172C33.1745 15.6172 32.8203 15.5964 32.4453 15.5547L32.3438 13.9688C32.5833 13.9948 32.888 14.0078 33.2578 14.0078C33.7318 14.0078 34.112 13.9141 34.3984 13.7266C34.6849 13.5391 34.9219 13.2057 35.1094 12.7266C35.1302 12.6745 35.2344 12.3802 35.4219 11.8438L31.9688 3.41406H34.1562L36.4141 9.64062C36.5807 9.02083 36.9531 7.86979 37.5312 6.1875C38.1146 4.50521 38.4349 3.58073 38.4922 3.41406H40.6797C38.2995 9.70573 37.099 12.8776 37.0781 12.9297C36.7083 13.8932 36.2422 14.5807 35.6797 14.9922C35.1172 15.4089 34.3932 15.6172 33.5078 15.6172Z" fill="#4EFFF6" fill-opacity="0.6"/>
</svg>
