<svg width="103" height="34" viewBox="0 0 103 34" fill="none" xmlns="http://www.w3.org/2000/svg">
<rect width="103" height="34" rx="8" fill="#34D1BF" fill-opacity="0.3"/>
<path d="M27.125 23V8.69336H35.5918L35.4941 10.793H29.752V14.8555H35.2109V16.9355H29.752V23H27.125Z" fill="white"/>
<path d="M37.8379 23V8.6543H42.6035C43.7298 8.6543 44.6934 8.80078 45.4941 9.09375C46.2949 9.38021 46.9264 9.84896 47.3887 10.5C47.8574 11.151 48.0918 11.9681 48.0918 12.9512C48.0918 13.6348 48.0039 14.2435 47.8281 14.7773C47.6523 15.3047 47.3626 15.7865 46.959 16.2227C46.5553 16.6523 45.9857 16.9844 45.25 17.2188C44.5208 17.4531 43.6387 17.5703 42.6035 17.5703C41.7181 17.5703 40.9987 17.5443 40.4453 17.4922V23H37.8379ZM42.3203 15.6562C42.8607 15.6562 43.3294 15.6042 43.7266 15.5C44.1302 15.3958 44.4427 15.2624 44.6641 15.0996C44.8919 14.9368 45.071 14.735 45.2012 14.4941C45.3379 14.2533 45.4258 14.0221 45.4648 13.8008C45.5104 13.5729 45.5332 13.319 45.5332 13.0391C45.5332 12.2513 45.2793 11.6523 44.7715 11.2422C44.2637 10.832 43.5475 10.627 42.623 10.627H40.4453V15.6367C40.5234 15.6497 41.1484 15.6562 42.3203 15.6562Z" fill="#34D1BF"/>
<path d="M53.5898 23.1465C52.8542 23.1465 52.2422 23.0618 51.7539 22.8926C51.2721 22.7168 50.8913 22.4401 50.6113 22.0625C50.3314 21.6849 50.1361 21.2357 50.0254 20.7148C49.9147 20.194 49.8594 19.5462 49.8594 18.7715V8.3125L52.418 8.14648V18.7227C52.418 19.6862 52.5319 20.3405 52.7598 20.6855C52.9876 21.0241 53.4303 21.1934 54.0879 21.1934C54.4134 21.1934 54.8268 21.1576 55.3281 21.0859L55.3965 22.9121C55.39 22.9121 55.3086 22.9284 55.1523 22.9609C55.0026 22.9935 54.8561 23.0195 54.7129 23.0391C54.5762 23.0651 54.4004 23.0879 54.1855 23.1074C53.9707 23.1335 53.7721 23.1465 53.5898 23.1465Z" fill="#34D1BF" fill-opacity="0.9"/>
<path d="M59.498 23.2051C58.502 23.2051 57.6947 22.9316 57.0762 22.3848C56.4642 21.8314 56.1582 21.0371 56.1582 20.002C56.1582 18.8887 56.5228 18.0651 57.252 17.5312C57.9811 16.9909 59.0814 16.6491 60.5527 16.5059C60.7546 16.4798 60.9727 16.4538 61.207 16.4277C61.4414 16.4017 61.7051 16.3757 61.998 16.3496C62.291 16.3236 62.5221 16.3008 62.6914 16.2812V15.7148C62.6914 15.0638 62.5417 14.5918 62.2422 14.2988C61.9427 13.9993 61.487 13.8496 60.875 13.8496C60.0026 13.8496 58.9251 14.0938 57.6426 14.582C57.6361 14.5625 57.5286 14.2663 57.3203 13.6934C57.112 13.1204 57.0046 12.8275 56.998 12.8145C58.2611 12.2741 59.6283 12.0039 61.0996 12.0039C62.5449 12.0039 63.5964 12.3197 64.2539 12.9512C64.9115 13.5762 65.2402 14.5918 65.2402 15.998V23H63.3457C63.3392 22.974 63.2676 22.7559 63.1309 22.3457C62.9941 21.9355 62.9258 21.7174 62.9258 21.6914C62.3919 22.2122 61.8678 22.5964 61.3535 22.8438C60.8457 23.0846 60.2272 23.2051 59.498 23.2051ZM60.1914 21.3887C60.7839 21.3887 61.2982 21.2487 61.7344 20.9688C62.1771 20.6823 62.4928 20.3372 62.6816 19.9336V17.8633C62.6621 17.8633 62.4896 17.8763 62.1641 17.9023C61.8451 17.9284 61.6725 17.9414 61.6465 17.9414C60.6113 18.0326 59.8529 18.2279 59.3711 18.5273C58.8893 18.8268 58.6484 19.3086 58.6484 19.9727C58.6484 20.4284 58.7819 20.7799 59.0488 21.0273C59.3158 21.2682 59.6966 21.3887 60.1914 21.3887Z" fill="#34D1BF" fill-opacity="0.8"/>
<path d="M68.3848 27.5215C67.9681 27.5215 67.5254 27.4954 67.0566 27.4434L66.9297 25.4609C67.2292 25.4935 67.61 25.5098 68.0723 25.5098C68.6647 25.5098 69.14 25.3926 69.498 25.1582C69.8561 24.9238 70.1523 24.5072 70.3867 23.9082C70.4128 23.8431 70.543 23.4753 70.7773 22.8047L66.4609 12.2676H69.1953L72.0176 20.0508C72.2259 19.276 72.6914 17.8372 73.4141 15.7344C74.1432 13.6315 74.5436 12.4759 74.6152 12.2676H77.3496C74.3743 20.1322 72.8737 24.097 72.8477 24.1621C72.3854 25.3665 71.8027 26.2259 71.0996 26.7402C70.3965 27.2611 69.4915 27.5215 68.3848 27.5215Z" fill="#34D1BF" fill-opacity="0.7"/>
</svg>
